<svg width="49" height="53" viewBox="0 0 49 53" fill="none" xmlns="http://www.w3.org/2000/svg">
<path d="M9.37344 12.4565C9.43126 10.938 9.32234 9.39316 9.57919 7.90749C10.2059 4.28928 13.2343 1.54933 16.9432 1.02211C17.0374 1.00897 17.1261 0.962951 17.2162 0.931396C17.8537 0.931396 18.4911 0.931396 19.1285 0.931396C19.8386 1.10757 20.5728 1.22196 21.256 1.47045C24.7941 2.75628 27.0063 5.90512 27.0493 9.6548C27.0601 10.5883 27.0681 11.5204 27.0762 12.4539L27.0883 12.4408C26.077 12.4408 25.0657 12.4408 24.0545 12.4395L24.0706 12.4552C24.0571 12.2278 24.037 11.999 24.0316 11.7716C24.0087 10.8065 24.0531 9.83361 23.9576 8.87515C23.6793 6.11153 21.2008 3.94087 18.3351 3.88697C15.4303 3.83306 12.8376 5.91038 12.496 8.67794C12.3427 9.92301 12.4086 11.1944 12.3763 12.4539L12.3911 12.4395C11.3799 12.4395 10.3686 12.4395 9.3573 12.4395L9.37209 12.4552L9.37344 12.4565Z" fill="#1467FF"/>
<path d="M27.0572 12.4837H34.1909C34.2274 13.0157 34.2679 13.5463 34.2977 14.0783C34.5517 18.46 34.8003 22.8431 35.0624 27.2248C35.0826 27.5686 35.0178 27.7175 34.6368 27.792C27.8867 29.128 23.062 35.3656 23.4444 42.2542C23.5443 44.0572 23.9645 45.7858 24.7346 47.4251C24.7981 47.5591 24.8508 47.6972 24.9306 47.8853C24.7644 47.8975 24.6387 47.9137 24.5131 47.9137C19.1195 47.9137 13.726 47.9259 8.33243 47.911C4.61964 47.9002 1.62427 45.6004 0.71364 42.1378C0.343441 40.73 0.527189 39.3182 0.605552 37.9063C0.816322 34.1134 1.04736 30.3219 1.27029 26.5304C1.54321 21.8644 1.81478 17.1971 2.08635 12.5514C2.14039 12.5135 2.16741 12.4783 2.19443 12.4783C4.55208 12.4783 6.91108 12.4837 9.26873 12.4864L9.25387 12.4702V19.2587H12.3019V12.4688L12.2871 12.4837C12.4884 12.4743 12.6897 12.458 12.8897 12.458C15.9674 12.4567 19.0439 12.4553 22.1216 12.458C22.7594 12.458 23.3984 12.4756 24.0361 12.4851L24.0199 12.4688V19.2627H27.0301C27.0301 18.6022 27.0261 17.9646 27.0301 17.3284C27.041 15.7094 27.0545 14.0905 27.068 12.4702L27.0558 12.4837H27.0572Z" fill="#1467FF"/>
<path d="M37.2571 52.3515C31.1508 52.3378 26.1848 47.345 26.2012 41.2348C26.2176 35.137 31.2341 30.1578 37.3309 30.1879C43.414 30.2179 48.369 35.2012 48.3649 41.2827C48.3608 47.3819 43.3607 52.3638 37.2571 52.3501V52.3515ZM35.6237 46.6975C38.332 43.8917 41.0061 41.1215 43.5683 38.4673C42.8595 37.6777 42.2012 36.9428 41.5183 36.1792C39.5571 38.2078 37.6505 40.1817 35.7234 42.1747C34.766 41.0955 33.8563 40.071 32.9372 39.0342C32.1532 39.7281 31.4157 40.3825 30.6468 41.0641C32.3076 42.9437 33.9492 44.8002 35.625 46.6962L35.6237 46.6975Z" fill="#1467FF" fill-opacity="0.58"/>
</svg>
