<svg width="52" height="51" viewBox="0 0 52 51" fill="none" xmlns="http://www.w3.org/2000/svg">
<path d="M51.2558 31.8091C50.8646 32.6619 50.1877 32.9063 49.2752 32.9044C39.0671 32.8837 28.8599 32.8916 18.6517 32.8906C17.353 32.8906 16.8042 32.3227 16.8416 31.0194C16.9776 26.2588 21.0333 22.1469 25.7994 22.0887C31.3035 22.0217 36.8106 22.0217 42.3148 22.0897C46.7104 22.1439 50.5759 25.7028 51.1592 30.0622C51.176 30.1874 51.2232 30.3077 51.2568 30.4309V31.8081L51.2558 31.8091Z" fill="#1467FF" fill-opacity="0.580392"/>
<path d="M51.2556 46.7653C51.1393 47.139 51.0634 47.5303 50.9018 47.8833C50.083 49.6676 48.6759 50.5924 46.7151 50.5983C42.0121 50.6131 37.308 50.6032 32.605 50.6032C28.836 50.6032 25.0661 50.6131 21.2972 50.5993C18.8604 50.5894 16.8937 48.6887 16.8405 46.3296C16.8178 45.3556 17.4297 44.702 18.4012 44.702C28.8242 44.699 39.2462 44.702 49.6692 44.6951C50.4673 44.6951 50.9235 45.1338 51.2566 45.7815V46.7653H51.2556Z" fill="#1467FF" fill-opacity="0.580392"/>
<path d="M29.3258 0.226074C29.3909 0.268465 29.453 0.315786 29.5209 0.351276C30.188 0.698291 30.528 1.35585 30.3723 2.00847C30.2038 2.71827 29.6362 3.17176 28.8706 3.1757C27.3473 3.18359 25.8229 3.18655 24.2996 3.17176C23.9764 3.1688 23.7715 3.24471 23.5842 3.53849C22.3762 5.42835 21.1426 7.30144 19.8547 9.27805C20.0961 9.27805 20.2617 9.27805 20.4272 9.27805C24.2119 9.27805 27.9966 9.2741 31.7813 9.28002C32.9125 9.28199 33.6417 10.2777 33.2534 11.2734C33.0307 11.8452 32.5913 12.1508 31.9892 12.2227C31.8434 12.2405 31.6946 12.2296 31.5468 12.2296C21.9299 12.2296 12.3129 12.2296 2.69593 12.2267C2.43777 12.2267 2.1668 12.2129 1.92342 12.138C1.24551 11.929 0.82772 11.2606 0.913445 10.5803C0.99917 9.89715 1.56279 9.35001 2.25647 9.28593C2.41905 9.27115 2.5836 9.27903 2.74816 9.27903C7.10633 9.27903 11.4645 9.2741 15.8217 9.28692C16.1863 9.28791 16.405 9.19524 16.6119 8.87287C18.2319 6.35109 19.8626 3.83622 21.5249 1.34303C21.8106 0.913204 22.2629 0.594778 22.6383 0.226074C24.8672 0.226074 27.096 0.226074 29.3258 0.226074Z" fill="#1467FF"/>
<path d="M31.4814 15.2185C31.4016 16.5247 31.3237 17.7965 31.2429 19.1175C30.8488 19.1175 30.4931 19.1126 30.1374 19.1175C28.3529 19.1451 26.5586 19.0682 24.785 19.224C19.5331 19.6834 14.9404 23.9885 14.1048 29.1878C13.9482 30.1628 13.8733 31.1871 13.9866 32.1631C14.1797 33.8292 15.2715 34.8899 16.7594 35.6333C16.1898 36.6014 15.8459 37.6611 15.8528 38.8205C15.8607 39.9591 16.1888 41.0071 16.7761 41.9722C13.4378 43.9498 13.0564 46.1699 15.2882 50.5806C15.1326 50.5884 14.9946 50.6022 14.8567 50.6022C12.1036 50.6032 9.35154 50.6042 6.59849 50.6022C5.42495 50.6022 4.89877 50.0866 4.82783 48.9204C4.51744 43.7842 4.19524 38.648 3.88387 33.5107C3.60403 28.898 3.33405 24.2843 3.05815 19.6706C2.96947 18.1987 2.87389 16.7278 2.7793 15.2185H31.4824H31.4814Z" fill="#1467FF"/>
<path d="M34.0417 41.746C29.9466 41.746 25.8515 41.7559 21.7574 41.7401C20.5366 41.7352 19.6192 41.1555 19.0921 40.0484C18.5826 38.9778 18.7107 37.9348 19.4221 36.9943C20.0242 36.1977 20.8598 35.8409 21.8569 35.8418C25.4771 35.8458 29.0963 35.8428 32.7164 35.8428C37.2372 35.8428 41.7579 35.8379 46.2787 35.8458C47.9705 35.8487 49.2731 37.1313 49.284 38.7708C49.2948 40.4339 47.9892 41.7401 46.2767 41.7441C42.1984 41.7529 38.12 41.747 34.0417 41.747V41.746Z" fill="#1467FF" fill-opacity="0.580392"/>
</svg>
