<svg width="46" height="39" viewBox="0 0 46 39" fill="none" xmlns="http://www.w3.org/2000/svg">
<path d="M0.978516 3.58286C1.59762 2.18886 2.67461 1.79193 3.77464 2.58715C4.09842 2.82151 4.39239 3.13039 4.61727 3.46229C5.49512 4.75604 5.79993 6.24487 5.96927 7.76215C6.07088 8.67522 6.04378 9.60455 6.16977 10.5149C6.28086 11.321 6.52335 12.1081 6.70894 12.9033C6.75094 13.0848 6.797 13.2663 6.83629 13.4289C6.32556 13.6118 5.80264 13.7283 5.34881 13.9708C3.1027 15.1751 2.44296 17.7464 3.7191 20.086C3.98191 20.5669 4.32601 21.0221 4.70939 21.4149C6.16842 22.9119 7.65724 24.379 9.13523 25.857C9.19619 25.918 9.26529 25.9681 9.33031 26.0223C10.0185 25.2718 10.0158 24.3262 9.29238 23.5825C8.30344 22.5664 7.29689 21.568 6.28627 20.5737C5.68614 19.983 5.13748 19.3639 4.92614 18.5213C4.64572 17.3996 4.87873 16.4269 5.82296 15.7035C6.75907 14.9855 7.77781 15.0261 8.73559 15.5992C9.39127 15.9907 9.98328 16.5082 10.5482 17.0311C11.319 17.745 11.9964 18.5646 12.7916 19.246C13.2901 19.6728 13.8998 20.0169 14.5161 20.2485C17.6239 21.4122 19.3321 23.6719 19.832 26.8974C19.9323 27.545 19.9729 28.2075 19.977 28.8631C19.9946 31.918 19.9905 34.9729 19.9919 38.0291C19.9919 38.1578 19.9797 38.2865 19.9716 38.4477H9.63106C9.63106 38.2865 9.63106 38.1443 9.63106 38.002C9.64189 36.9928 9.61616 35.9821 9.67305 34.9769C9.7584 33.4813 9.20026 32.2784 8.15307 31.2528C6.44071 29.5744 4.75681 27.8688 3.02819 26.2079C2.02842 25.2474 1.16547 24.2327 0.978516 22.7967L0.978516 3.58286Z" fill="#1467FF" fill-opacity="0.58"/>
<path d="M40.0196 13.4668C40.1077 13.1078 40.1632 12.7596 40.2784 12.4332C40.8135 10.9159 40.6929 9.31596 40.8934 7.75805C41.0871 6.24348 41.3824 4.75736 42.2481 3.45413C42.5759 2.95966 42.9824 2.54783 43.5554 2.33243C44.6134 1.93279 45.6742 2.53563 45.8584 3.65056C45.8909 3.85106 45.8896 4.05833 45.8896 4.26289C45.8909 10.1843 45.8828 16.1058 45.8963 22.0272C45.8991 23.47 45.41 24.6648 44.3764 25.6714C42.5123 27.4867 40.6834 29.3386 38.8139 31.1485C37.6746 32.2512 37.0839 33.5328 37.1964 35.1422C37.2628 36.0891 37.2289 37.0415 37.2384 37.9925C37.2397 38.1361 37.2384 38.2797 37.2384 38.4517H26.9304C26.9141 38.3759 26.8789 38.2946 26.8789 38.2133C26.8911 34.8062 26.8613 31.3991 26.9372 27.9947C26.99 25.6145 27.769 23.47 29.6222 21.8796C30.3294 21.2726 31.172 20.7606 32.0376 20.4178C33.2298 19.945 34.2025 19.2379 35.0803 18.3383C35.8661 17.535 36.6531 16.7276 37.4985 15.9906C38.1257 15.4447 38.8979 15.1182 39.7581 15.2035C41.499 15.3742 42.5299 17.0988 41.8471 18.7651C41.6155 19.33 41.2348 19.8651 40.8162 20.3135C39.7785 21.423 38.669 22.4675 37.6055 23.5526C36.8577 24.3153 36.8387 25.2663 37.5269 26.0101C37.554 25.9992 37.5865 25.9952 37.6055 25.9762C39.2718 24.2937 41.0099 22.6748 42.58 20.9069C43.8087 19.5237 44.1881 17.829 43.443 16.0435C42.8821 14.7009 41.8403 13.8854 40.4111 13.5752C40.2851 13.5481 40.1619 13.5074 40.021 13.4682L40.0196 13.4668Z" fill="#1467FF" fill-opacity="0.58"/>
<path d="M23.502 21.2388C23.3096 21.0572 23.2229 20.9787 23.1416 20.8974C20 17.7558 16.8544 14.6169 13.7169 11.4686C11.529 9.27396 11.0942 6.06059 12.6033 3.54895C14.6571 0.131012 18.9285 -0.402744 21.9224 1.69029C22.4561 2.06419 22.9262 2.53021 23.4329 2.95965C23.9057 2.55595 24.3609 2.10076 24.8811 1.73364C28.8504 -1.0652 34.2137 0.91539 35.0522 5.77339C35.3909 7.73907 34.8843 9.53 33.5485 11.0229C32.6828 11.9915 31.7305 12.8829 30.8106 13.8028C28.4765 16.141 26.1396 18.4752 23.8068 20.8134C23.6943 20.9258 23.6185 21.0735 23.5033 21.2361L23.502 21.2388Z" fill="#1467FF"/>
</svg>
