<svg width="41" height="41" viewBox="0 0 41 41" fill="none" xmlns="http://www.w3.org/2000/svg">
<path d="M40.5459 11.8173C40.2331 12.4839 39.6926 12.6739 38.9643 12.6729C26.5829 12.6585 14.2016 12.6626 1.8213 12.6626C0.737137 12.6626 0.323622 12.261 0.322572 11.2093C0.322572 10.5818 0.32782 9.95421 0.321523 9.32666C0.315225 8.73609 0.575509 8.33348 1.14121 8.10444C7.39327 5.56755 13.6432 3.02963 19.8911 0.484523C20.3455 0.299649 20.7486 0.389005 21.1736 0.562581C24.7074 2.00358 28.2433 3.43635 31.7792 4.87119C34.3379 5.90956 36.8935 6.95308 39.4575 7.97913C39.9361 8.1712 40.3286 8.42386 40.5459 8.89529V11.8163V11.8173ZM20.4327 9.20238C22.7479 9.20238 25.0632 9.20033 27.3785 9.20444C27.9106 9.20547 28.3241 9.01648 28.5623 8.53992C28.9517 7.75728 28.3713 6.90172 27.4414 6.89864C25.2437 6.89145 23.046 6.89659 20.8483 6.89659C18.3892 6.89659 15.9302 6.89864 13.4711 6.89556C12.9537 6.89556 12.5528 7.08454 12.3156 7.5416C11.9063 8.33245 12.4929 9.19828 13.447 9.20136C15.7748 9.20752 18.1037 9.20341 20.4316 9.20341L20.4327 9.20238Z" fill="#1467FF"/>
<path d="M1.19863 40.6067C0.518745 40.2641 0.281625 39.6775 0.326741 38.8777C0.36661 38.1662 0.333036 37.449 0.336184 36.734C0.339331 35.7693 1.01607 35.0315 1.90055 35.0315C10.4348 35.0315 18.969 35.0315 27.5022 35.0315C31.3108 35.0315 35.1205 35.0452 38.9291 35.02C39.6981 35.0154 40.1462 35.4096 40.463 36.0993C40.485 36.1463 40.5176 36.1875 40.5459 36.2322V39.6626C40.3581 40.0865 40.0696 40.4005 39.6824 40.6055H1.19863V40.6067Z" fill="#1467FF"/>
<path d="M4.79211 14.9075H10.3788V27.1983H4.79211V14.9075Z" fill="#1467FF"/>
<path d="M30.4894 14.9075H37.1935V27.1983H30.4894V14.9075Z" fill="#1467FF"/>
<path d="M15.9697 27.7418C15.9511 26.6438 16.5328 25.9613 17.3616 25.9078C18.2049 25.8531 18.8717 26.4835 18.946 27.4078C19.0178 28.3041 19.6672 28.9319 20.4893 28.9012C21.2782 28.8718 21.9277 28.1946 21.9263 27.4025C21.9263 26.5663 21.2875 25.9439 20.387 25.9038C18.2289 25.8063 16.4837 24.3771 16.068 22.3696C15.6297 20.2498 16.6258 18.2383 18.6167 17.3166C18.9673 17.155 18.9593 16.9319 18.9447 16.6501C18.9075 15.9128 19.1745 15.3385 19.8638 15.0312C20.7722 14.6279 21.8081 15.2556 21.9184 16.2601C21.9343 16.4083 21.9423 16.562 21.9237 16.7089C21.8825 17.0321 22.0034 17.1857 22.3115 17.338C23.9384 18.1367 24.8137 19.4684 24.9013 21.289C24.9438 22.1799 24.3169 22.8625 23.4869 22.9025C22.6568 22.9426 22.0007 22.3228 21.9277 21.4266C21.8506 20.4902 21.2038 19.8638 20.3592 19.9092C19.5902 19.9506 18.9593 20.6091 18.9474 21.3812C18.9341 22.2333 19.5822 22.8665 20.5106 22.9065C22.6528 22.9987 24.4059 24.4493 24.8083 26.4635C25.2333 28.5913 24.2306 30.5721 22.2371 31.5098C22.0113 31.6153 21.8931 31.7275 21.9237 31.9866C21.9436 32.1509 21.9343 32.3205 21.9237 32.4862C21.8652 33.2969 21.1959 33.9194 20.407 33.902C19.6367 33.886 18.9421 33.2649 18.9686 32.4755C18.9899 31.8584 18.7721 31.5792 18.2381 31.288C16.7892 30.4973 16.0773 29.191 15.9711 27.7431L15.9697 27.7418Z" fill="#1467FF" fill-opacity="0.58"/>
<path d="M2.57082 33.9025C2.57082 32.7918 2.53327 31.6984 2.58542 30.6104C2.61672 29.9578 3.11743 29.4491 3.65047 29.4451C5.90158 29.4291 8.15268 29.4291 10.4038 29.4451C10.9379 29.4491 11.4375 29.9565 11.4688 30.6104C11.521 31.6984 11.4834 32.7918 11.4834 33.9025H2.57082Z" fill="#1467FF"/>
<path d="M29.3911 33.9025C29.3911 32.7918 29.3536 31.6971 29.4057 30.6104C29.437 29.9578 29.9377 29.4491 30.4708 29.4451C32.7219 29.4291 34.973 29.4291 37.2241 29.4451C37.7582 29.4491 38.2578 29.9565 38.2891 30.6104C38.3413 31.6984 38.3037 32.7918 38.3037 33.9025H29.3922H29.3911Z" fill="#1467FF"/>
</svg>
